<svg id="그룹_16825" data-name="그룹 16825" xmlns="http://www.w3.org/2000/svg" xmlns:xlink="http://www.w3.org/1999/xlink" width="33.312" height="27.582" viewBox="0 0 33.312 27.582">
  <defs>
    <clipPath id="clip-path">
      <path id="패스_2728" data-name="패스 2728" d="M55.726,0a18.844,18.844,0,0,0-7.892,3.58,14.715,14.715,0,0,0-4.918,6.527,28.281,28.281,0,0,0-1.445,9.841l0,7.63,14.26,0,0-16.682H52.2A6.486,6.486,0,0,1,55.728,6.1Z" transform="translate(-41.47)" fill="#333"/>
    </clipPath>
    <clipPath id="clip-path-2">
      <path id="패스_2729" data-name="패스 2729" d="M6.39,3.59a14.644,14.644,0,0,0-4.945,6.526A28.283,28.283,0,0,0,0,19.957l0,7.63,14.261,0,0-16.682H10.733a6.487,6.487,0,0,1,3.525-4.79V.01A19.036,19.036,0,0,0,6.39,3.59" transform="translate(0 -0.01)" fill="#333"/>
    </clipPath>
  </defs>
  <g id="그룹_16822" data-name="그룹 16822" transform="translate(19.05)">
    <g id="그룹_16821" data-name="그룹 16821" clip-path="url(#clip-path)">
      <rect id="사각형_5911" data-name="사각형 5911" width="14.263" height="27.578" transform="translate(-0.001 0)" fill="#333"/>
    </g>
  </g>
  <g id="그룹_16824" data-name="그룹 16824" transform="translate(0 0.005)">
    <g id="그룹_16823" data-name="그룹 16823" clip-path="url(#clip-path-2)">
      <rect id="사각형_5912" data-name="사각형 5912" width="14.264" height="27.578" transform="translate(-0.001 0)" fill="#333"/>
    </g>
  </g>
</svg>
